<?xml version="1.0" encoding="UTF-8"?>
<svg width="120" height="40" viewBox="0 0 120 40" fill="none" xmlns="http://www.w3.org/2000/svg">
    <path d="M15.6 28.8h-4.8V11.2h4.8v17.6zm24 0h-4.8V11.2h4.8v17.6zm24 0h-4.8V11.2h4.8v17.6zm24 0h-4.8V11.2h4.8v17.6z" fill="#E2E8F0"/>
    <path d="M10.8 20c0-1.8 1.4-3.2 3.2-3.2s3.2 1.4 3.2 3.2-1.4 3.2-3.2 3.2-3.2-1.4-3.2-3.2zm24 0c0-1.8 1.4-3.2 3.2-3.2s3.2 1.4 3.2 3.2-1.4 3.2-3.2 3.2-3.2-1.4-3.2-3.2zm24 0c0-1.8 1.4-3.2 3.2-3.2s3.2 1.4 3.2 3.2-1.4 3.2-3.2 3.2-3.2-1.4-3.2-3.2zm24 0c0-1.8 1.4-3.2 3.2-3.2s3.2 1.4 3.2 3.2-1.4 3.2-3.2 3.2-3.2-1.4-3.2-3.2z" fill="#94A3B8"/>
</svg>