<?xml version="1.0" encoding="UTF-8"?>
<svg width="48" height="48" viewBox="0 0 24 24" fill="none" xmlns="http://www.w3.org/2000/svg">
    <path d="M13.3 6.3l-.7.7-4.2 4.2c-.4.4-.4 1 0 1.4l.7.7c.4.4 1 .4 1.4 0l4.2-4.2.7-.7c.4-.4.4-1 0-1.4l-.7-.7c-.4-.4-1-.4-1.4 0z" fill="#4F46E5"/>
    <path d="M19.4 3.4L18 2c-.5-.5-1.2-.5-1.7 0L14.7 3.6c-.5.5-.5 1.2 0 1.7l1.4 1.4c.5.5 1.2.5 1.7 0l1.6-1.6c.5-.5.5-1.2 0-1.7zM3 20.5c0 .8.7 1.5 1.5 1.5h3c.8 0 1.5-.7 1.5-1.5v-3c0-.8-.7-1.5-1.5-1.5h-3c-.8 0-1.5.7-1.5 1.5v3z" fill="#4F46E5"/>
</svg>